<svg xmlns="http://www.w3.org/2000/svg" width="2000" height="1100" viewBox="0 0 2000 1100"><defs><filter id="shadow" x="-20%" y="-20%" width="140%" height="140%"><feDropShadow dx="0" dy="2" stdDeviation="2.2" flood-color="#000" flood-opacity="0.10"/></filter><marker id="arr-blue" markerWidth="8" markerHeight="8" refX="7.2" refY="4" orient="auto" markerUnits="userSpaceOnUse"><path d="M0,0 L8,4 L0,8 Z" fill="#1262C4"/></marker><marker id="arr-orange" markerWidth="8" markerHeight="8" refX="7.2" refY="4" orient="auto" markerUnits="userSpaceOnUse"><path d="M0,0 L8,4 L0,8 Z" fill="#F36A00"/></marker><marker id="arr-green" markerWidth="8" markerHeight="8" refX="7.2" refY="4" orient="auto" markerUnits="userSpaceOnUse"><path d="M0,0 L8,4 L0,8 Z" fill="#178B1B"/></marker><marker id="arr-purple" markerWidth="8" markerHeight="8" refX="7.2" refY="4" orient="auto" markerUnits="userSpaceOnUse"><path d="M0,0 L8,4 L0,8 Z" fill="#7930AE"/></marker><marker id="arr-red" markerWidth="8" markerHeight="8" refX="7.2" refY="4" orient="auto" markerUnits="userSpaceOnUse"><path d="M0,0 L8,4 L0,8 Z" fill="#ED1B2E"/></marker><style>text{font-family:Inter,"Noto Sans","Noto Sans CJK JP","DejaVu Sans",sans-serif;fill:#121820}.path{font-size:22px;font-weight:700}.total{font-size:17px;fill:#5E6874}.big{font-size:21px;font-weight:750}.med{font-size:18px;font-weight:650}.small{font-size:15px}.tiny{font-size:13px;fill:#5E6874}.reqtitle{font-size:25px;font-weight:750}.reqsize{font-size:19px;font-weight:650}.reqdetail{font-size:15px}.badge{font-size:22px;font-weight:800;fill:#fff}</style></defs><rect width="2000" height="1100" fill="#fff"/><line x1="24.00" y1="635.00" x2="24.00" y2="705.00" stroke="#5E6874" stroke-width="2" stroke-linecap="round"/><line x1="18.00" y1="635.00" x2="30.00" y2="635.00" stroke="#5E6874" stroke-width="2" stroke-linecap="round"/><line x1="18.00" y1="705.00" x2="30.00" y2="705.00" stroke="#5E6874" stroke-width="2" stroke-linecap="round"/><text x="36.00" y="676.00" text-anchor="start" class="tiny">1 GiB</text><text x="55.00" y="52.00" text-anchor="start" class="path">s3://my-bucket/src/a.bin</text><text x="55.00" y="78.00" text-anchor="start" class="total">5,370,806,272 bytes</text><rect x="55.00" y="100.00" width="195.00" height="350.00" rx="0" fill="#D7E9F8" stroke="#1262C4" stroke-width="2"/><rect x="55.00" y="450.00" width="195.00" height="0.20" rx="0" fill="#FCE2C2" stroke="#F36A00" stroke-width="1"/><line x1="55.00" y1="450.00" x2="250.00" y2="450.00" stroke="#F36A00" stroke-width="3" stroke-linecap="round"/><text x="152.50" y="250.00" text-anchor="middle"><tspan x="152.50" dy="0" class="big">5 GiB</tspan><tspan x="152.50" dy="31" class="med">5,368,709,120 bytes</tspan></text><text x="330.00" y="343.00" text-anchor="start" class="path">s3://my-bucket/src/b.bin</text><text x="330.00" y="369.00" text-anchor="start" class="total">6,442,450,944 bytes</text><rect x="330.00" y="450.00" width="195.00" height="0.21" rx="0" fill="#FCE2C2" stroke="#F36A00" stroke-width="1"/><line x1="330.00" y1="450.00" x2="525.00" y2="450.00" stroke="#F36A00" stroke-width="3" stroke-linecap="round"/><rect x="330.00" y="450.21" width="195.00" height="350.00" rx="0" fill="#D4EDC8" stroke="#178B1B" stroke-width="2"/><rect x="330.00" y="800.21" width="195.00" height="69.79" rx="0" fill="#DEC9EC" stroke="#7930AE" stroke-width="2"/><text x="427.50" y="598.21" text-anchor="middle"><tspan x="427.50" dy="0" class="big">5 GiB</tspan><tspan x="427.50" dy="31" class="med">5,368,709,120 bytes</tspan></text><text x="427.50" y="825.21" text-anchor="middle"><tspan x="427.50" dy="0" class="med">1,021 MiB</tspan><tspan x="427.50" dy="25" class="small">1,070,596,096 bytes</tspan></text><text x="55.00" y="903.00" text-anchor="start" class="path">s3://my-bucket/src/c.bin</text><text x="55.00" y="929.00" text-anchor="start" class="total">3,145,728 bytes</text><line x1="55.00" y1="970.00" x2="250.00" y2="970.00" stroke="#ED1B2E" stroke-width="3" stroke-linecap="round"/><rect x="55.00" y="944.00" width="195.00" height="52.00" rx="10" fill="#FFFFFF" stroke="#ED1B2E" stroke-width="2"/><text x="152.50" y="978.00" text-anchor="middle" class="med">3 MiB</text><path d="M 250 450.0 H 272 V 437 H 285" fill="none" stroke="#F36A00" stroke-width="1.7" stroke-linecap="round" stroke-linejoin="round" stroke-dasharray="4 4"/><rect x="285.00" y="420.00" width="92.00" height="34.00" rx="7" fill="#FFFFFF" stroke="#F36A00" stroke-width="1.7"/><text x="331.00" y="443.00" text-anchor="middle" class="med">2 MiB</text><path d="M 525 450.0 H 545 V 463 H 558" fill="none" stroke="#F36A00" stroke-width="1.7" stroke-linecap="round" stroke-linejoin="round" stroke-dasharray="4 4"/><rect x="558.00" y="446.00" width="92.00" height="34.00" rx="7" fill="#FFFFFF" stroke="#F36A00" stroke-width="1.7"/><text x="604.00" y="469.00" text-anchor="middle" class="med">3 MiB</text><text x="1570.00" y="52.00" text-anchor="start" class="path">s3://my-bucket/out/merged.bin</text><text x="1570.00" y="78.00" text-anchor="start" class="total">11,816,402,944 bytes</text><rect x="1570.00" y="100.00" width="300.00" height="350.00" rx="0" fill="#D7E9F8" stroke="#1262C4" stroke-width="2"/><rect x="1570.00" y="450.00" width="300.00" height="0.34" rx="0" fill="#FCE2C2" stroke="#F36A00" stroke-width="1"/><line x1="1570.00" y1="450.00" x2="1870.00" y2="450.00" stroke="#F36A00" stroke-width="3" stroke-linecap="round"/><rect x="1570.00" y="450.34" width="300.00" height="350.00" rx="0" fill="#D4EDC8" stroke="#178B1B" stroke-width="2"/><rect x="1570.00" y="800.34" width="300.00" height="69.79" rx="0" fill="#DEC9EC" stroke="#7930AE" stroke-width="2"/><rect x="1570.00" y="870.14" width="300.00" height="0.21" rx="0" fill="#F7CBD0" stroke="#ED1B2E" stroke-width="1"/><line x1="1570.00" y1="870.14" x2="1870.00" y2="870.14" stroke="#ED1B2E" stroke-width="3" stroke-linecap="round"/><text x="1720.00" y="232.00" text-anchor="middle"><tspan x="1720.00" dy="0" class="big">Part 1</tspan><tspan x="1720.00" dy="27" class="big">5 GiB</tspan><tspan x="1720.00" dy="27" class="med">5,368,709,120 bytes</tspan><tspan x="1720.00" dy="27" class="small">src/a.bin</tspan><tspan x="1720.00" dy="27" class="small">bytes=0–5368709119</tspan></text><text x="1720.00" y="582.34" text-anchor="middle"><tspan x="1720.00" dy="0" class="big">Part 3</tspan><tspan x="1720.00" dy="27" class="big">5 GiB</tspan><tspan x="1720.00" dy="27" class="med">5,368,709,120 bytes</tspan><tspan x="1720.00" dy="27" class="small">src/b.bin</tspan><tspan x="1720.00" dy="27" class="small">bytes=3145728–5371854847</tspan></text><text x="1720.00" y="824.34" text-anchor="middle"><tspan x="1720.00" dy="0" class="med">Part 4 · 1,021 MiB</tspan><tspan x="1720.00" dy="25" class="small">1,070,596,096 bytes</tspan></text><rect x="1885.00" y="421.00" width="105.00" height="58.00" rx="8" fill="#FFFFFF" stroke="#F36A00" stroke-width="1.7"/><text x="1937.50" y="445.00" text-anchor="middle" class="med">Part 2</text><text x="1937.50" y="467.00" text-anchor="middle" class="small">5 MiB</text><line x1="1870.00" y1="450.00" x2="1885.00" y2="450.00" stroke="#F36A00" stroke-width="1.7" stroke-linecap="round" stroke-dasharray="4 4"/><rect x="1885.00" y="841.14" width="105.00" height="58.00" rx="8" fill="#FFFFFF" stroke="#ED1B2E" stroke-width="1.7"/><text x="1937.50" y="865.14" text-anchor="middle" class="med">Part 5</text><text x="1937.50" y="887.14" text-anchor="middle" class="small">3 MiB</text><line x1="1870.00" y1="870.14" x2="1885.00" y2="870.14" stroke="#ED1B2E" stroke-width="1.7" stroke-linecap="round" stroke-dasharray="4 4"/><line x1="250.00" y1="275.00" x2="746.00" y2="275.00" stroke="#1262C4" stroke-width="3" stroke-linecap="round" marker-end="url(#arr-blue)"/><line x1="377.00" y1="437.00" x2="700.00" y2="437.00" stroke="#F36A00" stroke-width="2.5" stroke-linecap="round"/><line x1="650.00" y1="463.00" x2="700.00" y2="463.00" stroke="#F36A00" stroke-width="2.5" stroke-linecap="round"/><line x1="700.00" y1="437.00" x2="700.00" y2="463.00" stroke="#F36A00" stroke-width="2.5" stroke-linecap="round"/><circle cx="700" cy="450" r="4.5" fill="#F36A00"/><line x1="704.00" y1="450.00" x2="746.00" y2="450.00" stroke="#F36A00" stroke-width="3" stroke-linecap="round" marker-end="url(#arr-orange)"/><line x1="525.00" y1="625.21" x2="746.00" y2="625.21" stroke="#178B1B" stroke-width="3" stroke-linecap="round" marker-end="url(#arr-green)"/><line x1="525.00" y1="835.10" x2="746.00" y2="835.10" stroke="#7930AE" stroke-width="3" stroke-linecap="round" marker-end="url(#arr-purple)"/><line x1="250.00" y1="970.00" x2="746.00" y2="970.00" stroke="#ED1B2E" stroke-width="3" stroke-linecap="round" marker-end="url(#arr-red)"/><line x1="1170.00" y1="275.00" x2="1556.00" y2="275.00" stroke="#1262C4" stroke-width="3" stroke-linecap="round" marker-end="url(#arr-blue)"/><line x1="1170.00" y1="450.00" x2="1556.00" y2="450.00" stroke="#F36A00" stroke-width="3" stroke-linecap="round" marker-end="url(#arr-orange)"/><line x1="1170.00" y1="625.21" x2="1556.00" y2="625.21" stroke="#178B1B" stroke-width="3" stroke-linecap="round" marker-end="url(#arr-green)"/><line x1="1170.00" y1="835.10" x2="1556.00" y2="835.10" stroke="#7930AE" stroke-width="3" stroke-linecap="round" marker-end="url(#arr-purple)"/><path d="M 1170 970 H 1480 V 870.13671875 H 1556" fill="none" stroke="#ED1B2E" stroke-width="3" stroke-linecap="round" stroke-linejoin="round" marker-end="url(#arr-red)"/><rect x="760.00" y="212.00" width="410.00" height="126.00" rx="14" fill="#FFFFFF" stroke="#1262C4" stroke-width="2.5" filter="url(#shadow)"/><rect x="774.00" y="226.00" width="44.00" height="44.00" rx="8" fill="#1262C4"/><text x="796.00" y="257.00" text-anchor="middle" class="badge">1</text><text x="983.00" y="250.00" text-anchor="middle" class="reqtitle">UploadPartCopy</text><text x="983.00" y="284.00" text-anchor="middle" class="reqsize">5,368,709,120 bytes</text><text x="983.00" y="310.00" text-anchor="middle" class="reqdetail">src/a.bin</text><text x="983.00" y="332.00" text-anchor="middle" class="reqdetail">bytes=0–5368709119</text><rect x="760.00" y="379.00" width="410.00" height="142.00" rx="14" fill="#FFFFFF" stroke="#F36A00" stroke-width="2.5" filter="url(#shadow)"/><rect x="774.00" y="393.00" width="44.00" height="44.00" rx="8" fill="#F36A00"/><text x="796.00" y="424.00" text-anchor="middle" class="badge">2</text><text x="983.00" y="417.00" text-anchor="middle" class="reqtitle">UploadPart</text><text x="983.00" y="449.00" text-anchor="middle" class="reqsize">5,242,880 bytes</text><rect x="852.00" y="465.00" width="105.00" height="42.00" rx="6" fill="#FCE2C2" stroke="#F36A00" stroke-width="1.5"/><rect x="973.00" y="465.00" width="105.00" height="42.00" rx="6" fill="#FCE2C2" stroke="#F36A00" stroke-width="1.5"/><text x="904.50" y="491.00" text-anchor="middle" class="med">2 MiB</text><text x="1025.50" y="491.00" text-anchor="middle" class="med">3 MiB</text><text x="965.00" y="493.00" text-anchor="middle" class="med">+</text><rect x="760.00" y="562.21" width="410.00" height="126.00" rx="14" fill="#FFFFFF" stroke="#178B1B" stroke-width="2.5" filter="url(#shadow)"/><rect x="774.00" y="576.21" width="44.00" height="44.00" rx="8" fill="#178B1B"/><text x="796.00" y="607.21" text-anchor="middle" class="badge">3</text><text x="983.00" y="600.21" text-anchor="middle" class="reqtitle">UploadPartCopy</text><text x="983.00" y="634.21" text-anchor="middle" class="reqsize">5,368,709,120 bytes</text><text x="983.00" y="660.21" text-anchor="middle" class="reqdetail">src/b.bin</text><text x="983.00" y="682.21" text-anchor="middle" class="reqdetail">bytes=3145728–5371854847</text><rect x="760.00" y="772.10" width="410.00" height="126.00" rx="14" fill="#FFFFFF" stroke="#7930AE" stroke-width="2.5" filter="url(#shadow)"/><rect x="774.00" y="786.10" width="44.00" height="44.00" rx="8" fill="#7930AE"/><text x="796.00" y="817.10" text-anchor="middle" class="badge">4</text><text x="983.00" y="810.10" text-anchor="middle" class="reqtitle">UploadPartCopy</text><text x="983.00" y="844.10" text-anchor="middle" class="reqsize">1,070,596,096 bytes</text><text x="983.00" y="870.10" text-anchor="middle" class="reqdetail">src/b.bin</text><text x="983.00" y="892.10" text-anchor="middle" class="reqdetail">bytes=5371854848–6442450943</text><rect x="760.00" y="915.00" width="410.00" height="110.00" rx="14" fill="#FFFFFF" stroke="#ED1B2E" stroke-width="2.5" filter="url(#shadow)"/><rect x="774.00" y="929.00" width="44.00" height="44.00" rx="8" fill="#ED1B2E"/><text x="796.00" y="960.00" text-anchor="middle" class="badge">5</text><text x="983.00" y="953.00" text-anchor="middle" class="reqtitle">UploadPart</text><text x="983.00" y="987.00" text-anchor="middle" class="reqsize">3,145,728 bytes</text><text x="983.00" y="1013.00" text-anchor="middle" class="reqdetail">src/c.bin</text><circle cx="250" cy="450.0" r="3.5" fill="#F36A00"/><circle cx="525" cy="450.0" r="3.5" fill="#F36A00"/><circle cx="1570" cy="450.0" r="3.5" fill="#F36A00"/><circle cx="1570" cy="870.13671875" r="3.5" fill="#ED1B2E"/></svg>